<svg width="994" height="994" viewBox="0 0 994 994" fill="none" xmlns="http://www.w3.org/2000/svg">
<rect width="994" height="994" rx="101" fill="#001C4A"/>
<g clip-path="url(#clip0_307_553)">
<path d="M505.118 176.823C505.782 176.81 505.782 176.81 506.46 176.797C510.835 176.8 514.274 178.219 518.099 180.23C519.391 180.878 520.716 181.429 522.045 181.997C523.098 182.481 524.144 182.98 525.191 183.479C528.446 185.022 531.722 186.516 535.008 187.992C537.514 189.123 539.978 190.32 542.429 191.565C543.426 192.068 544.422 192.571 545.419 193.073C545.889 193.31 546.358 193.547 546.841 193.791C547.818 194.266 548.785 194.713 549.783 195.137C550.824 195.58 551.826 196.038 552.83 196.557C553.854 197.078 554.86 197.543 555.924 197.987C557.078 198.494 558.112 199.025 559.2 199.651C560.877 200.606 562.589 201.315 564.388 202.006C565.464 202.444 566.405 203.017 567.39 203.629C568.07 203.925 568.751 204.22 569.435 204.509C573.77 206.351 578.128 208.214 582.205 210.581C583.221 211.13 584.261 211.578 585.324 212.024C586.714 212.628 588.061 213.319 589.413 214.004C589.689 214.143 589.965 214.282 590.25 214.425C592.519 215.568 592.519 215.568 593.642 216.14C595.157 216.908 596.661 217.616 598.253 218.216C599.719 218.788 600.985 219.46 602.335 220.27C602.956 220.519 603.581 220.761 604.207 220.998C605.952 221.673 607.561 222.486 609.199 223.39C611.07 224.42 612.906 225.275 614.9 226.027C616.749 226.794 618.517 227.717 620.301 228.622C621.718 229.34 623.132 230.042 624.592 230.67C626.544 231.514 628.433 232.481 630.331 233.44C632.69 234.627 635.073 235.759 637.462 236.884C640.515 238.326 643.521 239.831 646.492 241.434C648.642 242.594 650.821 243.665 653.036 244.694C653.92 245.231 653.92 245.231 654.336 246.479C654.611 246.479 654.886 246.479 655.168 246.479C655.79 247.721 655.633 248.853 655.584 250.223C655.447 250.497 655.31 250.772 655.168 251.055C654.894 251.055 654.619 251.055 654.336 251.055C654.199 251.467 654.062 251.878 653.92 252.303C653.177 252.773 653.177 252.773 652.203 253.218C651.665 253.467 651.665 253.467 651.116 253.722C650.729 253.897 650.341 254.072 649.942 254.253C649.138 254.625 648.334 254.999 647.531 255.372C647.131 255.557 646.732 255.742 646.321 255.932C644.775 256.654 643.249 257.41 641.726 258.179C641.459 258.313 641.191 258.448 640.915 258.586C640.119 258.987 639.323 259.389 638.528 259.791C634.442 261.856 630.335 263.866 626.196 265.823C624.053 266.837 621.924 267.875 619.807 268.943C619.253 269.221 618.698 269.498 618.143 269.775C617.869 269.912 617.594 270.05 617.311 270.191C614.815 271.439 614.815 271.439 613.985 271.854C613.424 272.135 612.864 272.417 612.305 272.702C610.532 273.6 608.741 274.408 606.911 275.183C605.788 275.693 604.672 276.217 603.557 276.743C603.251 276.887 602.945 277.032 602.629 277.18C600.174 278.341 597.744 279.548 595.324 280.782C594.421 281.224 593.505 281.641 592.58 282.036C591.057 282.691 589.586 283.424 588.113 284.18C585.501 285.504 582.857 286.734 580.182 287.924C577.123 289.285 574.113 290.71 571.134 292.24C565.553 295.093 565.553 295.093 563.282 295.958C560.248 297.121 557.385 298.671 554.494 300.144C550.683 302.075 546.838 303.907 542.939 305.653C540.285 306.844 537.683 308.123 535.091 309.443C533.672 310.139 532.235 310.759 530.781 311.376C529.773 311.841 528.768 312.308 527.765 312.78C525.173 313.996 522.573 315.189 519.965 316.369C519.57 316.549 519.175 316.729 518.769 316.915C517.643 317.428 516.516 317.939 515.388 318.449C515.114 318.574 514.839 318.699 514.556 318.827C509.343 321.143 503.188 321.443 497.788 319.498C497.281 319.289 496.774 319.08 496.252 318.865C495.904 318.722 495.557 318.579 495.199 318.431C490.606 316.525 486.101 314.471 481.674 312.208C477.542 310.102 473.312 308.184 469.107 306.228C466.363 304.949 463.625 303.655 460.891 302.354C460.483 302.161 460.076 301.968 459.655 301.769C457.517 300.749 455.451 299.67 453.403 298.48C452.682 298.171 452.682 298.171 451.947 297.856C450.903 297.409 450.002 296.97 449.035 296.4C447.911 295.739 446.775 295.226 445.568 294.729C440.094 292.244 440.094 292.244 438.426 290.576C438.374 289.484 438.374 289.484 438.426 288.496C439.397 287.941 440.368 287.386 441.338 286.832C441.79 286.571 442.242 286.31 442.708 286.042C444.212 285.183 445.736 284.365 447.267 283.556C449.585 282.329 451.883 281.071 454.163 279.772C455.067 279.343 455.067 279.343 456.315 279.343C456.315 279.069 456.315 278.794 456.315 278.511C456.723 278.31 457.131 278.108 457.551 277.9C460.72 276.329 463.864 274.722 466.978 273.046C468.941 271.992 470.927 270.993 472.924 270.006C474.098 269.412 475.257 268.796 476.413 268.17C479.182 266.67 481.984 265.279 484.842 263.956C487.213 262.856 489.55 261.698 491.872 260.499C492.633 260.111 493.401 259.742 494.172 259.375C494.654 259.137 495.136 258.899 495.633 258.653C498.487 257.618 501.705 258.075 504.693 258.184C509.398 258.342 514.154 258.009 517.885 254.799C519.777 252.773 521.267 251.038 521.213 248.143C520.684 245.322 518.881 243.446 516.61 241.824C516.072 241.557 515.525 241.307 514.972 241.07C514.621 240.915 514.269 240.76 513.906 240.601C508.243 238.485 501.472 238.476 495.946 240.95C494.961 241.456 494.961 241.456 494.172 242.318C493.76 242.318 493.348 242.318 492.924 242.318C492.787 242.73 492.649 243.142 492.508 243.566C492.233 243.566 491.959 243.566 491.676 243.566C490.593 245.649 489.604 247.561 489.362 249.911C489.18 251.471 489.18 251.471 488.348 252.719C487.936 252.719 487.524 252.719 487.1 252.719C487.1 252.993 487.1 253.268 487.1 253.551C486.712 253.757 486.324 253.964 485.925 254.176C485.389 254.462 484.853 254.747 484.318 255.033C484.036 255.183 483.754 255.333 483.464 255.487C481.631 256.465 479.801 257.45 477.973 258.439C476.349 259.315 474.718 260.165 473.062 260.979C471.767 261.636 470.49 262.327 469.211 263.015C467.027 264.188 464.828 265.321 462.607 266.421C459.401 268.01 456.242 269.678 453.085 271.361C451.46 272.224 449.831 273.079 448.203 273.935C444.782 275.735 441.361 277.535 437.949 279.35C437.241 279.726 436.532 280.1 435.823 280.475C431.582 282.476 431.582 282.476 428.858 286C426.65 285.752 424.874 285.017 422.878 284.102C422.551 283.954 422.223 283.806 421.886 283.654C419.425 282.533 417.001 281.344 414.59 280.12C412.433 279.026 410.246 278.006 408.044 277.003C406.562 276.317 405.106 275.587 403.654 274.84C402.621 274.338 401.57 273.892 400.513 273.444C399.181 272.859 397.888 272.2 396.591 271.543C396.304 271.399 396.017 271.255 395.722 271.107C394.302 270.394 392.886 269.676 391.471 268.955C388.606 267.469 388.606 267.469 385.619 266.265C383.957 265.692 382.451 264.843 380.913 264.003C379.07 262.997 377.254 262.069 375.296 261.299C372.735 260.277 370.345 258.993 367.919 257.69C365.128 256.199 362.289 254.837 359.407 253.532C358.939 253.317 358.939 253.317 358.461 253.097C358.187 252.974 357.912 252.85 357.63 252.722C356.803 252.255 356.245 251.786 355.64 251.055C355.518 249.932 355.518 249.932 355.562 248.689C355.573 248.275 355.584 247.862 355.596 247.436C355.61 247.12 355.625 246.804 355.64 246.479C355.914 246.479 356.189 246.479 356.472 246.479C356.609 246.067 356.746 245.655 356.888 245.231C357.625 244.766 357.625 244.766 358.591 244.33C358.948 244.166 359.305 244.001 359.672 243.832C360.25 243.572 360.25 243.572 360.84 243.306C364.332 241.694 367.747 239.987 371.131 238.162C373.364 236.961 375.589 235.778 377.975 234.908C380.183 234.05 382.205 232.919 384.276 231.777C385.728 231.015 387.195 230.428 388.726 229.849C390.299 229.195 391.761 228.36 393.247 227.529C395.128 226.481 397.031 225.527 399.014 224.688C400.614 224.007 402.164 223.239 403.715 222.454C404.002 222.31 404.288 222.166 404.584 222.017C405.741 221.436 406.897 220.852 408.053 220.268C408.577 220.003 409.103 219.738 409.628 219.474C410.327 219.122 411.026 218.769 411.725 218.416C413.12 217.739 414.536 217.134 415.962 216.526C417.024 216.042 418.079 215.543 419.134 215.044C419.433 214.902 419.732 214.761 420.04 214.616C421.038 214.144 422.036 213.671 423.034 213.198C423.405 213.021 423.777 212.845 424.16 212.664C425.319 212.114 426.477 211.564 427.636 211.014C427.997 210.842 428.358 210.671 428.73 210.494C431.408 209.219 434.061 207.902 436.704 206.556C439.617 205.076 442.528 203.692 445.56 202.466C447.673 201.575 449.699 200.513 451.739 199.469C452.752 198.956 453.766 198.445 454.781 197.935C455.242 197.702 455.704 197.469 456.18 197.228C457.108 196.778 458.047 196.351 458.996 195.946C460.574 195.266 462.092 194.506 463.621 193.723C466.252 192.389 468.909 191.196 471.629 190.055C473.792 189.125 475.875 188.049 477.964 186.964C479.392 186.233 480.815 185.585 482.316 185.013C484.221 184.269 486.031 183.388 487.854 182.465C490.761 180.992 493.675 179.547 496.668 178.253C497.163 178.027 497.658 177.802 498.168 177.57C500.437 176.737 502.727 176.807 505.118 176.823Z" fill="white"/>
<path d="M598.59 286.831C598.638 292.237 598.675 297.644 598.697 303.05C598.708 305.561 598.723 308.072 598.747 310.582C598.769 313.007 598.782 315.432 598.787 317.857C598.791 318.78 598.798 319.704 598.81 320.627C598.825 321.924 598.827 323.221 598.826 324.519C598.833 324.897 598.841 325.275 598.848 325.664C598.826 328.54 597.948 330.546 596.51 333.008C596.343 333.306 596.176 333.604 596.005 333.911C595.626 334.585 595.237 335.253 594.846 335.92C594.571 335.92 594.296 335.92 594.014 335.92C593.979 336.15 593.944 336.379 593.908 336.616C593.497 337.898 592.804 338.724 591.959 339.768C591.516 340.325 591.516 340.325 591.064 340.893C590.802 341.174 590.54 341.455 590.269 341.744C589.995 341.744 589.72 341.744 589.437 341.744C589.163 342.294 588.888 342.843 588.605 343.408C588.331 343.408 588.056 343.408 587.773 343.408C587.662 343.657 587.55 343.906 587.435 344.162C586.942 345.072 586.485 345.66 585.693 346.321C585.419 346.321 585.144 346.321 584.861 346.321C584.724 346.732 584.587 347.144 584.445 347.569C583.568 348.335 582.693 349.048 581.767 349.753C581.504 349.956 581.24 350.159 580.969 350.369C578.845 351.998 576.688 353.571 574.461 355.057C574.147 355.268 573.834 355.478 573.51 355.695C571.298 357.137 571.298 357.137 569.885 357.137C569.885 357.411 569.885 357.686 569.885 357.969C569.26 358.3 569.26 358.3 568.622 358.638C568.064 358.935 567.505 359.232 566.947 359.529C566.674 359.674 566.4 359.818 566.119 359.968C564.786 360.677 563.466 361.397 562.164 362.161C560.743 362.955 559.327 363.593 557.821 364.209C557.273 364.437 556.726 364.666 556.179 364.895C554.661 365.524 553.141 366.146 551.619 366.766C550.861 367.075 550.105 367.387 549.349 367.7C545.595 369.207 541.763 370.274 537.852 371.281C537.455 371.385 537.057 371.489 536.648 371.595C535.352 371.931 534.054 372.257 532.756 372.581C532.366 372.682 531.976 372.782 531.574 372.886C523.423 374.873 515.292 375.23 506.937 375.188C505.509 375.181 504.081 375.185 502.653 375.192C494.549 375.227 486.429 375.014 478.574 372.815C477.478 372.515 476.385 372.296 475.268 372.087C473.85 371.815 472.627 371.414 471.29 370.865C470.745 370.746 470.199 370.634 469.652 370.527C467.398 370.053 465.28 369.256 463.121 368.463C461.992 368.052 460.864 367.668 459.72 367.303C458.145 366.787 456.657 366.138 455.152 365.447C454.249 365.048 453.341 364.701 452.414 364.365C450.905 363.793 450.905 363.793 449.657 362.961C448.777 360.381 448.72 357.45 448.448 354.745C448.07 351.069 447.609 347.408 447.113 343.747C446.218 337.125 445.398 330.498 444.665 323.856C444.496 322.322 444.326 320.789 444.156 319.255C444.048 318.277 443.941 317.3 443.834 316.322C443.547 313.708 443.547 313.708 443.175 311.106C442.945 309.257 442.957 307.438 442.975 305.577C442.978 305.032 442.978 305.032 442.981 304.475C442.986 303.586 442.993 302.696 443.001 301.807C444.757 302.276 446.357 302.786 447.967 303.627C448.321 303.81 448.675 303.992 449.04 304.18C449.381 304.358 449.722 304.536 450.073 304.719C451.653 305.526 453.226 306.308 454.858 307.007C456.181 307.575 457.454 308.192 458.732 308.853C459.477 309.216 460.237 309.548 461 309.871C462.63 310.562 464.201 311.353 465.778 312.156C468.015 313.284 470.261 314.37 472.548 315.393C477.036 317.419 481.49 319.531 485.862 321.797C487.309 322.539 488.752 323.194 490.271 323.778C492.028 324.455 493.653 325.285 495.315 326.17C500.225 328.723 505.314 329.477 510.683 328.063C512.707 327.382 514.561 326.412 516.447 325.422C517.774 324.744 519.102 324.155 520.483 323.596C522.732 322.682 524.878 321.636 527.036 320.528C533.603 317.171 533.603 317.171 537.033 315.867C538.071 315.447 538.982 314.878 539.932 314.288C540.612 313.992 541.293 313.697 541.977 313.408C546.313 311.566 550.67 309.703 554.748 307.336C556.014 306.652 557.328 306.115 558.653 305.551C559.549 305.117 560.442 304.675 561.331 304.225C561.838 303.97 562.346 303.714 562.853 303.458C563.117 303.325 563.38 303.192 563.651 303.055C565.086 302.332 566.524 301.615 567.961 300.897C568.493 300.631 569.025 300.365 569.557 300.099C569.815 299.97 570.073 299.842 570.339 299.709C570.883 299.436 571.426 299.162 571.969 298.886C573.275 298.224 574.575 297.598 575.922 297.021C577.527 296.333 579.069 295.557 580.623 294.761C582.453 293.832 584.265 292.938 586.187 292.213C587.839 291.588 589.347 290.803 590.893 289.951C596.563 286.831 596.563 286.831 598.59 286.831Z" fill="white"/>
<path d="M432.184 298.479C432.459 298.479 432.733 298.479 433.016 298.479C433.949 302.403 434.55 306.295 434.979 310.303C435.213 312.447 435.467 314.589 435.72 316.732C435.77 317.162 435.819 317.592 435.87 318.035C436.157 320.471 436.532 322.869 436.987 325.278C437.267 326.869 437.434 328.464 437.592 330.07C437.812 332.172 438.054 334.254 438.424 336.336C438.76 338.246 439.001 340.155 439.204 342.082C439.569 345.522 440.004 348.95 440.452 352.379C441.288 358.783 442.072 365.192 442.837 371.605C442.967 372.666 443.105 373.725 443.249 374.785C443.435 376.441 443.508 378.066 443.521 379.732C443.529 380.024 443.538 380.316 443.547 380.616C443.563 382.715 443.563 382.715 442.895 383.698C440.494 385.283 437.976 386.141 435.096 386.258C434.719 386.274 434.342 386.291 433.954 386.308C430.123 386.393 426.202 386.406 422.902 384.23C421.649 382.979 421.27 382.016 421.188 380.291C421.241 376.198 421.991 372.128 422.72 368.111C423.029 366.374 423.241 364.638 423.422 362.883C423.783 359.409 424.22 355.946 424.67 352.483C424.706 352.203 424.743 351.924 424.78 351.636C425.028 349.725 425.278 347.815 425.528 345.905C425.587 345.457 425.645 345.01 425.706 344.548C425.76 344.136 425.814 343.723 425.869 343.298C425.921 342.902 425.973 342.506 426.026 342.098C426.127 341.33 426.227 340.563 426.328 339.795C426.652 337.323 426.96 334.849 427.264 332.374C427.668 329.092 428.083 325.826 428.663 322.571C428.964 320.687 429.163 318.793 429.376 316.898C429.618 314.788 429.943 312.705 430.312 310.613C430.571 308.974 430.754 307.331 430.936 305.681C431.208 303.235 431.577 300.866 432.184 298.479Z" fill="white"/>
<path d="M410.967 286.414C412.46 286.694 413.699 287.067 415.075 287.714C415.467 287.897 415.859 288.08 416.263 288.268C416.712 288.48 417.161 288.692 417.623 288.91C418.185 289.172 418.747 289.434 419.309 289.695C420.828 290.402 422.346 291.112 423.864 291.822C424.067 295.101 423.636 298.204 423.119 301.429C422.726 303.907 422.418 306.381 422.174 308.879C421.927 311.384 421.599 313.845 421.158 316.325C420.908 317.885 420.731 319.451 420.562 321.021C420.528 321.329 420.495 321.637 420.461 321.955C420.426 322.278 420.391 322.601 420.355 322.934C420.081 325.479 419.792 328.021 419.496 330.564C419.446 331.002 419.397 331.441 419.346 331.893C419.067 334.269 418.681 336.526 418.039 338.832C415.282 337.811 413.927 335.018 412.735 332.514C412.609 332.258 412.483 332.001 412.353 331.738C411.512 330.011 410.915 328.611 410.917 326.686C410.917 326.331 410.916 325.976 410.916 325.61C410.917 325.221 410.919 324.833 410.92 324.433C410.92 324.023 410.92 323.613 410.92 323.19C410.92 321.833 410.923 320.476 410.927 319.118C410.927 318.178 410.928 317.238 410.928 316.298C410.93 313.821 410.934 311.345 410.939 308.868C410.943 306.342 410.945 303.816 410.947 301.289C410.951 296.331 410.959 291.373 410.967 286.414Z" fill="white"/>
</g>
<path d="M404.314 403.729C409.469 403.729 409.469 403.729 411.567 404.02C412.037 404.085 412.506 404.149 412.99 404.215C413.482 404.287 413.974 404.358 414.481 404.432C415.005 404.506 415.53 404.581 416.07 404.659C432.231 407.013 448.596 410.525 463.804 416.626C464.602 416.926 465.401 417.222 466.201 417.516C476.067 421.161 485.668 425.273 494.924 430.279C495.823 430.762 496.724 431.239 497.628 431.713C500.746 433.354 500.746 433.354 502.077 434.098C502.51 434.324 502.943 434.55 503.389 434.783C504.573 435.762 504.573 435.762 504.883 437.161C504.895 437.731 504.893 438.302 504.88 438.871C504.885 439.345 504.885 439.345 504.889 439.829C504.896 440.893 504.885 441.957 504.873 443.022C504.875 443.791 504.877 444.559 504.88 445.328C504.886 447.444 504.875 449.56 504.863 451.677C504.852 453.957 504.856 456.238 504.858 458.519C504.859 462.471 504.851 466.424 504.837 470.377C504.817 476.092 504.81 481.807 504.807 487.522C504.802 496.794 504.785 506.066 504.762 515.337C504.739 524.345 504.721 533.354 504.71 542.362C504.71 542.639 504.71 542.917 504.709 543.203C504.706 546.267 504.702 549.332 504.699 552.396C504.673 575.504 504.629 598.612 504.573 621.72C502.636 621.385 501.129 620.639 499.425 619.692C494.983 617.283 490.429 615.123 485.853 612.983C485.502 612.818 485.15 612.653 484.788 612.483C479.268 609.896 473.628 607.677 467.922 605.534C466.893 605.146 465.866 604.75 464.841 604.35C460.895 602.815 456.888 601.575 452.823 600.401C451.744 600.088 450.667 599.769 449.59 599.448C444.388 597.914 439.156 596.636 433.851 595.511C433.37 595.408 432.888 595.305 432.392 595.199C423.981 593.411 415.569 591.932 406.973 591.439C405.979 591.351 405.979 591.351 404.314 590.935C404.314 529.157 404.314 467.379 404.314 403.729Z" fill="white"/>
<path d="M609.409 403.729C609.409 465.507 609.409 527.285 609.409 590.935C608.216 591.233 607.214 591.432 606.011 591.544C605.677 591.576 605.344 591.608 605 591.641C604.645 591.674 604.289 591.707 603.923 591.741C603.164 591.815 602.406 591.89 601.648 591.965C600.602 592.068 599.557 592.17 598.511 592.269C593.327 592.761 588.278 593.769 583.186 594.838C582.095 595.065 581.003 595.284 579.909 595.498C571.58 597.149 563.376 599.47 555.327 602.167C555.007 602.274 554.688 602.381 554.358 602.491C546.35 605.191 538.353 608.074 530.75 611.774C529.837 612.205 528.915 612.612 527.989 613.016C523.8 614.848 519.779 616.839 515.813 619.115C514.666 619.767 513.513 620.402 512.341 621.01C512.078 621.146 511.815 621.283 511.543 621.424C510.814 621.72 510.814 621.72 509.566 621.72C509.566 560.216 509.566 498.713 509.566 435.346C523.07 428.112 523.07 428.112 528.894 425.433C529.667 425.077 530.438 424.717 531.208 424.356C534.377 422.876 537.576 421.499 540.819 420.188C541.31 419.989 541.802 419.79 542.308 419.585C552.787 415.367 563.483 411.816 574.464 409.138C575.045 408.992 575.045 408.992 575.639 408.844C586.564 406.128 598.122 403.729 609.409 403.729Z" fill="white"/>
<path d="M383.097 444.083C383.234 500.506 383.371 556.93 383.513 615.063C385.572 614.926 387.631 614.789 389.753 614.647C391.089 614.605 392.417 614.571 393.752 614.563C394.277 614.558 394.277 614.558 394.813 614.554C395.943 614.547 397.073 614.544 398.203 614.543C398.597 614.543 398.991 614.543 399.396 614.542C420.419 614.557 441.701 617.026 461.977 622.69C462.716 622.896 463.456 623.101 464.196 623.305C477.016 626.849 490.327 630.655 502.286 636.587C502.54 636.709 502.795 636.83 503.057 636.956C503.772 637.298 504.48 637.653 505.188 638.009C507.271 638.508 508.463 637.925 510.396 637.112C510.865 636.925 511.333 636.738 511.815 636.545C513.185 635.996 514.551 635.436 515.915 634.873C547.72 621.776 581.31 614.508 615.751 614.543C616.144 614.544 616.537 614.544 616.942 614.544C618.073 614.547 619.203 614.554 620.334 614.563C620.658 614.565 620.982 614.567 621.316 614.568C624.302 614.605 627.211 614.849 630.208 615.063C630.414 530.428 630.414 530.428 630.624 444.083C638.833 444.565 638.833 444.565 641.856 445.331C641.932 469.243 641.991 493.155 642.026 517.068C642.03 519.889 642.035 522.71 642.039 525.532C642.039 525.812 642.04 526.093 642.04 526.382C642.054 535.485 642.079 544.588 642.11 553.691C642.142 563.309 642.162 572.927 642.169 582.545C642.174 588.308 642.188 594.071 642.215 599.834C642.233 603.783 642.238 607.731 642.234 611.68C642.232 613.961 642.235 616.241 642.253 618.521C642.269 620.607 642.27 622.693 642.258 624.78C642.257 625.536 642.261 626.292 642.272 627.047C642.345 632.685 642.345 632.685 641.138 634.372C639.789 635.438 638.826 635.826 637.117 636.045C636.648 635.985 636.179 635.924 635.696 635.862C634.882 635.771 634.882 635.771 634.051 635.678C633.764 635.641 633.478 635.603 633.182 635.563C631.952 635.405 630.718 635.288 629.483 635.168C628.481 635.07 627.48 634.967 626.479 634.862C591.844 631.252 556.752 632.403 515.506 644.048C513.156 644.953 510.612 644.817 508.129 644.809C507.262 644.808 506.397 644.825 505.53 644.844C501.968 644.876 499.089 644.326 495.713 643.078C493.147 642.149 490.503 641.528 487.854 640.882C487.568 640.812 487.282 640.742 486.987 640.669C485.222 640.236 483.456 639.81 481.688 639.389C480.912 639.205 480.137 639.018 479.361 638.832C470.924 636.829 462.417 635.656 453.819 634.616C453.405 634.565 452.992 634.513 452.566 634.46C450.214 634.172 447.862 633.955 445.499 633.784C444.99 633.747 444.481 633.71 443.957 633.672C424.174 632.276 404.657 633.073 384.953 635.166C384.52 635.212 384.086 635.258 383.64 635.305C382.827 635.391 382.015 635.479 381.202 635.568C380.17 635.678 379.138 635.773 378.105 635.864C377.596 635.916 377.087 635.967 376.563 636.021C374.724 635.81 373.559 635.123 372.28 633.784C371.98 632.567 371.891 631.8 371.922 630.585C371.919 630.264 371.915 629.944 371.912 629.613C371.904 628.535 371.917 627.458 371.93 626.379C371.929 625.6 371.926 624.821 371.923 624.042C371.916 621.898 371.928 619.754 371.942 617.61C371.955 615.299 371.951 612.988 371.949 610.677C371.947 606.673 371.956 602.668 371.973 598.663C371.996 592.873 372.004 587.083 372.008 581.293C372.014 571.899 372.033 562.505 372.061 553.111C372.088 543.985 372.108 534.859 372.121 525.732C372.121 525.451 372.121 525.17 372.122 524.88C372.126 522.055 372.129 519.23 372.133 516.406C372.163 492.714 372.215 469.022 372.28 445.331C372.939 445.195 373.598 445.06 374.257 444.925C374.808 444.812 374.808 444.812 375.369 444.697C376.764 444.439 378.146 444.323 379.561 444.239C380.054 444.207 380.547 444.176 381.056 444.144C381.736 444.11 382.416 444.083 383.097 444.083Z" fill="white"/>
<path d="M388.506 424.53C392.076 424.53 395.645 424.53 399.323 424.53C399.323 480.953 399.323 537.377 399.323 595.51C402.068 595.648 404.814 595.785 407.643 595.926C409.656 596.123 411.646 596.336 413.649 596.602C414.184 596.673 414.718 596.743 415.269 596.815C436.879 599.745 458.818 605.428 478.562 614.79C480.043 615.486 481.535 616.153 483.03 616.818C487.889 618.981 492.683 621.22 497.306 623.854C497.709 624.081 498.111 624.308 498.525 624.542C499.313 624.988 500.097 625.441 500.876 625.901C503.321 627.285 505.47 628.143 508.318 627.959C509.448 627.612 510.217 627.274 511.23 626.711C512.066 626.285 512.901 625.858 513.737 625.432C514.696 624.932 515.654 624.431 516.612 623.929C517.628 623.4 518.645 622.871 519.662 622.343C520.149 622.09 520.636 621.837 521.137 621.576C521.574 621.349 522.012 621.121 522.462 620.887C522.794 620.714 523.125 620.542 523.467 620.364C530.319 616.811 537.415 613.647 544.678 611.034C545.835 610.611 546.971 610.166 548.11 609.7C562.108 604.069 576.999 600.35 591.858 597.876C592.165 597.825 592.472 597.774 592.788 597.721C598.66 596.749 604.516 595.967 610.466 595.695C610.847 595.677 611.227 595.659 611.619 595.64C612.547 595.596 613.474 595.553 614.401 595.51C614.401 594.969 614.401 594.969 614.4 594.417C614.391 573.06 614.384 551.702 614.38 530.345C614.379 527.783 614.378 525.222 614.378 522.66C614.378 522.15 614.378 521.64 614.378 521.115C614.376 512.845 614.373 504.576 614.369 496.307C614.365 487.829 614.362 479.35 614.362 470.872C614.361 465.636 614.359 460.4 614.356 455.164C614.354 451.579 614.353 447.994 614.354 444.408C614.354 442.336 614.353 440.265 614.351 438.193C614.349 436.299 614.349 434.406 614.35 432.512C614.351 431.824 614.35 431.136 614.349 430.448C614.347 429.519 614.348 428.59 614.35 427.661C614.349 426.884 614.349 426.884 614.349 426.091C614.401 424.946 614.401 424.946 614.817 424.53C618.386 424.53 621.956 424.53 625.633 424.53C625.633 485.621 625.633 546.712 625.633 609.655C614.307 609.861 614.307 609.861 602.752 610.071C593.205 610.796 593.205 610.796 583.694 611.813C583.157 611.879 583.157 611.879 582.61 611.946C558.499 614.948 534.612 621.461 512.33 631.193C508.616 632.745 505.034 632.723 501.272 631.307C499.996 630.783 498.749 630.212 497.501 629.623C494.311 628.156 491.054 626.973 487.737 625.828C486.616 625.439 485.497 625.045 484.378 624.651C481.961 623.8 479.54 622.965 477.117 622.135C476.643 621.971 476.643 621.971 476.16 621.804C461.471 616.755 445.863 613.694 430.472 611.813C429.967 611.751 429.967 611.751 429.452 611.687C415.784 610.033 402.309 609.906 388.506 609.655C388.506 548.563 388.506 487.472 388.506 424.53Z" fill="white"/>
<g clip-path="url(#clip1_307_553)">
<g clip-path="url(#clip2_307_553)">
<path d="M652.077 646.137C650.767 650.453 649.152 654.393 647.004 658.357C646.725 658.876 646.446 659.395 646.159 659.93C622.649 703.062 580.636 724.927 537.026 743.542C538.24 743.446 538.24 743.446 539.478 743.348C556.334 742.037 573.142 741.2 590.052 741.16C590.825 741.155 591.598 741.149 592.394 741.144C625.189 740.959 652.884 752.287 679.651 770.831C680.804 771.628 681.968 772.409 683.134 773.187C682.901 773.886 682.668 774.585 682.428 775.304C666.717 782.414 647.597 782.527 630.682 782.539C629.981 782.54 629.281 782.541 628.56 782.541C597.65 782.52 561.34 779.844 538.085 756.909C533.971 752.69 530.215 748.717 529.88 742.594C530.445 730.591 535.64 719.887 542.673 710.368C543.066 709.817 543.459 709.267 543.864 708.7C554.873 694.079 569.761 683.406 585.023 673.664C585.461 673.385 585.899 673.105 586.35 672.817C604.508 661.325 629.808 646.137 652.077 646.137Z" fill="white"/>
<path d="M364.098 646.137C379.269 648.116 393.475 653.548 407.154 660.254C407.695 660.517 408.235 660.78 408.792 661.052C422.638 667.88 435.932 676.148 448.093 685.664C448.775 686.197 449.457 686.73 450.16 687.279C467.301 701.021 482.488 717.706 485.841 740.167C486.303 746.927 483.251 750.949 479.033 755.935C463.504 772.581 440.153 778.032 418.448 780.951C417.851 781.035 417.255 781.119 416.64 781.205C390.638 784.68 356.672 785.821 332.336 774.599C334.825 771.965 337.418 769.839 340.453 767.849C340.906 767.551 341.36 767.252 341.827 766.945C364.216 752.429 388.663 741.402 415.721 741.281C416.468 741.276 417.215 741.272 417.985 741.267C420.418 741.255 422.852 741.25 425.285 741.248C426.117 741.246 426.948 741.245 427.805 741.243C444.978 741.23 462.035 742.179 479.149 743.542C478.698 743.348 478.246 743.154 477.781 742.955C421.437 718.654 421.437 718.654 400.457 698.647C399.008 697.266 397.541 695.974 395.993 694.707C393.294 692.408 391.057 689.806 388.803 687.075C388.342 686.522 388.342 686.522 387.873 685.958C364.098 657.284 364.098 657.284 364.098 646.137Z" fill="white"/>
<path d="M738.895 563.554C733.716 599.49 719.69 640.134 694.482 667.149C693.135 668.595 691.861 670.079 690.589 671.591C681.502 681.915 668.75 691.164 655.606 695.545C655.427 690.817 656.079 686.499 657.018 681.87C657.173 681.103 657.329 680.337 657.489 679.548C663.512 651.092 675.527 621.892 694.427 599.552C694.923 598.964 695.419 598.376 695.93 597.771C725.884 563.554 725.884 563.554 738.895 563.554Z" fill="white"/>
<path d="M848.3 572.024C844.425 580.117 838.299 587.023 832.253 593.569C830.955 594.987 829.7 596.426 828.448 597.884C825.277 601.516 821.886 604.921 818.478 608.331C817.859 608.959 817.239 609.587 816.601 610.235C812.331 614.514 807.848 618.369 803.126 622.139C802.393 622.756 801.662 623.377 800.937 624.005C791.839 631.822 782.022 638.517 771.364 644.019C770.929 644.244 770.495 644.468 770.047 644.7C755.683 652.004 733.225 660.649 717.015 656.019C718.075 652.925 719.735 650.433 721.647 647.813C721.96 647.38 722.273 646.947 722.596 646.5C726.933 640.557 731.641 634.966 736.599 629.533C737.677 628.348 738.745 627.153 739.803 625.949C742.594 622.78 745.408 619.836 748.639 617.118C750.492 615.525 752.25 613.846 754.027 612.169C778.621 589.421 814.142 571.549 848.3 572.024Z" fill="white"/>
<path d="M167.876 572.024C200.848 572.606 232.732 587.787 257.517 608.728C258.268 609.348 259.02 609.967 259.772 610.586C269.298 618.504 278.136 627.182 285.75 636.961C286.794 638.197 287.838 639.432 288.882 640.667C299.161 653.197 299.161 653.197 299.161 656.019C274.806 660.152 247.433 647.729 227.872 634.138C206.71 618.805 187.475 600.508 172.067 579.392C171.654 578.828 171.241 578.264 170.815 577.683C170.434 577.154 170.053 576.625 169.66 576.08C169.316 575.605 168.972 575.129 168.617 574.639C167.876 573.436 167.876 573.436 167.876 572.024Z" fill="white"/>
<path d="M277.28 563.554C300.957 572.02 323.253 598.01 335.158 619.315C335.471 619.874 335.784 620.433 336.106 621.009C348.544 643.497 358.47 669.036 360.568 694.839C357.117 694.455 354.404 693.358 351.392 691.707C350.933 691.457 350.474 691.207 350 690.95C341.662 686.302 334.495 680.519 327.657 673.891C326.845 673.11 326.016 672.347 325.183 671.588C299.134 647.229 279.331 599.969 277.31 564.732C277.3 564.343 277.29 563.955 277.28 563.554Z" fill="white"/>
<path d="M831.361 663.783C828.386 667.129 825.015 669.151 821.126 671.326C820.471 671.695 819.816 672.064 819.14 672.444C792.997 686.972 760.761 700.435 730.435 700.629C729.655 700.637 729.655 700.637 728.859 700.644C727.191 700.657 725.522 700.661 723.854 700.662C723.284 700.663 722.714 700.663 722.127 700.664C706.685 700.643 693.145 698.145 678.901 692.016C678.901 691.084 678.901 690.153 678.901 689.193C680.662 687.856 682.334 686.763 684.239 685.663C685.093 685.16 685.093 685.16 685.964 684.646C687.835 683.556 689.718 682.489 691.606 681.428C692.225 681.078 692.844 680.728 693.482 680.367C714.674 668.507 738.115 660.149 762.189 656.724C762.657 656.652 763.126 656.581 763.608 656.507C785.126 653.613 811.289 655.375 831.361 663.783Z" fill="white"/>
<path d="M755.131 732.954C755.131 733.42 755.131 733.886 755.131 734.366C713.559 748.668 660.476 756.045 619.295 736.562C613.485 733.683 608.017 730.264 602.671 726.602C602.114 726.221 601.557 725.839 600.984 725.446C600.609 725.129 600.234 724.811 599.848 724.484C599.848 724.018 599.848 723.553 599.848 723.073C617.141 715.995 635.643 712.239 654.197 710.368C654.981 710.288 655.765 710.209 656.574 710.128C689.475 707.405 727.845 712.739 755.131 732.954Z" fill="white"/>
<path d="M415.625 723.073C414.556 726.126 412.265 727.511 409.67 729.205C409.204 729.51 408.738 729.816 408.257 730.13C373.127 752.513 327.604 750.668 288.329 742.181C266.711 737.247 266.711 737.247 260.342 733.66C298.867 699.872 372.166 704.324 415.625 723.073Z" fill="white"/>
<path d="M233.739 655.754C234.288 655.754 234.837 655.755 235.402 655.756C261.646 655.852 286.84 663.189 310.455 674.37C311.175 674.71 311.175 674.71 311.909 675.056C317.468 677.701 322.868 680.583 328.189 683.678C328.682 683.964 329.175 684.249 329.683 684.542C332.702 686.33 335.344 688.291 337.982 690.604C335.613 692.606 333.049 693.72 330.174 694.795C329.687 694.978 329.199 695.16 328.697 695.349C290.669 708.983 247.357 696.732 212.336 680.315C190.472 669.813 190.472 669.813 184.816 665.194C184.816 664.729 184.816 664.263 184.816 663.783C190.863 661.722 196.901 659.969 203.168 658.71C203.969 658.546 203.969 658.546 204.786 658.379C214.419 656.52 223.942 655.727 233.739 655.754Z" fill="white"/>
<path d="M240.579 450.621C243.703 453.449 245.699 456.496 247.769 460.15C248.104 460.738 248.438 461.326 248.783 461.932C257.725 477.874 264.476 494.621 267.4 512.734C267.523 513.461 267.523 513.461 267.648 514.202C270.332 530.955 269.85 549.631 267.4 566.378C267.305 567.027 267.211 567.676 267.113 568.345C265.998 575.728 264.593 583.014 262.724 590.244C262.579 590.809 262.433 591.374 262.283 591.956C261.228 595.842 261.228 595.842 259.636 597.434C241.834 581.568 233.899 553.458 232.307 530.524C230.931 504.353 231.745 476.436 239.873 451.327C240.106 451.094 240.339 450.861 240.579 450.621Z" fill="white"/>
<path d="M774.188 450.621C774.654 450.621 775.12 450.621 775.6 450.621C788.067 490.08 789.657 540.304 770.543 577.922C766.825 584.928 762.344 592.745 755.836 597.434C753.698 592.54 752.255 587.755 751.204 582.524C751.066 581.89 750.929 581.255 750.787 580.602C748.106 567.594 747.008 554.522 747.09 541.256C747.102 539.064 747.09 536.872 747.077 534.68C747.062 520.567 748.916 507.184 753.013 493.677C753.229 492.953 753.229 492.953 753.45 492.214C757.733 478.202 764.616 464.865 772.776 452.739C773.242 452.04 773.708 451.341 774.188 450.621Z" fill="white"/>
<path d="M891.355 485.207C890.302 488.934 888.608 491.955 886.59 495.221C886.082 496.046 886.082 496.046 885.563 496.888C879.191 507.057 871.851 516.527 863.827 525.439C863.476 525.83 863.125 526.221 862.763 526.624C841.837 549.822 818.04 567.162 786.186 569.907C790.559 555.031 802.078 541.685 812.301 530.38C812.898 529.718 812.898 529.718 813.507 529.043C831.971 508.656 862.19 485.207 891.355 485.207Z" fill="white"/>
<path d="M685.251 250.87C707.878 257.335 729.478 274.144 746.51 289.699C747.754 290.817 749.01 291.875 750.32 292.911C752.91 295.156 755.057 297.648 757.246 300.278C757.69 300.802 758.134 301.325 758.592 301.864C769.438 314.969 777.709 330.548 779.833 347.569C776.869 347.175 774.47 346.495 771.771 345.215C771.054 344.875 770.336 344.535 769.597 344.185C768.84 343.817 768.084 343.449 767.305 343.07C766.52 342.69 765.736 342.31 764.928 341.919C750.742 334.94 738.083 326.171 726.19 315.807C725.685 315.381 725.18 314.955 724.66 314.516C705.687 298.399 691.018 275.2 685.251 250.87Z" fill="white"/>
<path d="M755.835 348.98C759.358 350.537 761.191 353.11 763.599 356.039C763.902 356.4 764.204 356.762 764.516 357.134C776.41 371.384 786.003 387.285 793.95 404.035C794.187 404.525 794.425 405.015 794.669 405.52C804.659 426.23 810.639 452.785 803.126 475.325C786.293 467.693 773.888 439.66 766.423 423.799C766.047 423.006 765.671 422.214 765.284 421.397C754.941 398.495 752.829 373.676 755.835 348.98Z" fill="white"/>
<path d="M659.84 161.229C662.701 161.678 664.879 163.199 667.252 164.758C667.687 165.042 668.122 165.325 668.57 165.617C686.521 177.438 705.002 193.184 717.719 210.637C718.011 211.033 718.304 211.428 718.606 211.835C730.587 228.125 740.787 248.461 739.6 269.222C719.884 265.473 696.658 239.334 685.25 224.048C684.96 223.663 684.67 223.277 684.37 222.88C672.558 207.03 658.389 181.798 659.84 161.229Z" fill="white"/>
<path d="M873.005 396.272C869.519 433.233 852.697 476.018 823.722 500.406C809.261 512.028 809.261 512.028 803.833 512.028C803.653 506.932 804.299 502.323 805.333 497.338C805.572 496.176 805.572 496.176 805.815 494.991C811.167 469.693 821.204 444.1 838.419 424.505C838.933 423.914 839.447 423.322 839.977 422.713C848.13 413.489 856.858 405.654 867.182 398.963C867.813 398.553 867.813 398.553 868.458 398.135C871.41 396.272 871.41 396.272 873.005 396.272Z" fill="white"/>
<path d="M330.216 250.87C329.371 256.293 327.731 261.096 325.584 266.134C325.114 267.246 325.114 267.246 324.634 268.38C316.793 286.584 304.726 303.939 289.278 316.513C288.551 317.124 287.824 317.735 287.097 318.346C251.902 347.569 251.902 347.569 236.34 347.569C237.595 324.145 254.49 302.729 271.153 287.623C275.383 283.865 279.824 280.396 284.337 276.986C284.801 276.631 285.264 276.276 285.742 275.911C318.609 250.87 318.609 250.87 330.216 250.87Z" fill="white"/>
<path d="M868.769 303.102C869.686 337.316 861.986 378.887 839.829 406.153C839.541 406.515 839.253 406.876 838.956 407.249C832.543 415.267 825.595 422.281 816.537 427.328C816.304 427.328 816.071 427.328 815.831 427.328C814.942 387.864 824.804 347.279 852.534 317.924C853.317 317 854.096 316.074 854.872 315.145C865.339 303.102 865.339 303.102 868.769 303.102Z" fill="white"/>
<path d="M356.333 161.229C354.415 175.861 350.147 189.64 343.628 202.873C343.402 203.339 343.175 203.804 342.942 204.283C337.782 214.777 330.89 223.795 323.159 232.518C322.822 232.899 322.486 233.281 322.139 233.673C309.583 247.808 294.676 260.223 277.986 269.222C277.52 269.222 277.054 269.222 276.574 269.222C274.989 246.284 287.044 223.673 301.559 206.658C303.535 204.41 305.584 202.233 307.631 200.05C308.459 199.098 309.282 198.142 310.101 197.182C314.755 191.839 319.88 186.985 325.277 182.404C325.918 181.841 326.56 181.278 327.22 180.697C349.553 161.229 349.553 161.229 356.333 161.229Z" fill="white"/>
<path d="M124.819 485.207C145.281 487.848 165.837 497.202 181.992 509.911C182.718 510.48 183.444 511.048 184.192 511.634C193.776 519.365 202.794 528.323 210.225 538.144C210.886 538.989 211.548 539.834 212.21 540.678C229.283 562.688 229.283 562.688 229.283 569.907C209.979 568.457 192.389 561.191 177.051 549.438C176.337 548.894 175.623 548.351 174.887 547.792C169.453 543.406 164.531 538.472 159.582 533.556C159.236 533.214 158.89 532.872 158.533 532.52C153.792 527.818 149.421 522.922 145.289 517.675C144.686 516.924 144.686 516.924 144.072 516.157C138.002 508.556 132.651 500.601 127.643 492.265C127.357 491.799 127.072 491.332 126.777 490.851C124.819 487.574 124.819 487.574 124.819 485.207Z" fill="white"/>
<path d="M752.305 171.111C774.281 196.9 784.107 241.786 781.816 274.681C780.87 284.524 778.364 296.232 772.775 304.514C756.882 290.886 749.999 259.83 745.953 240.283C745.787 239.502 745.622 238.721 745.451 237.917C741.64 216.983 743.231 191.549 751.6 171.817C751.833 171.584 752.065 171.351 752.305 171.111Z" fill="white"/>
<path d="M805.95 236.754C822.183 256.439 823.96 300.299 821.857 324.755C820.161 341.335 815.142 357.974 805.244 371.568C804.778 371.568 804.312 371.568 803.832 371.568C787.687 333.418 782.8 290.637 798.431 251.469C803.605 239.099 803.605 239.099 805.95 236.754Z" fill="white"/>
<path d="M143.172 396.272C166.569 404.517 185.905 432.179 196.154 453.488C204.345 471.145 212.344 492.297 212.344 512.028C203.96 509.504 196.955 504.335 190.463 498.618C189.559 497.855 189.559 497.855 188.638 497.076C184.229 493.271 180.609 489.101 177.052 484.501C176.537 483.864 176.022 483.227 175.492 482.571C158.881 461.473 141.642 423.4 143.172 396.272Z" fill="white"/>
<path d="M146.701 303.102C150.748 305.389 153.916 308.401 157.288 311.572C157.919 312.164 158.549 312.756 159.199 313.366C186.193 339.511 199.445 378.166 200.397 415.253C200.413 417.117 200.407 418.979 200.388 420.843C200.385 421.475 200.382 422.107 200.379 422.758C200.371 424.282 200.358 425.805 200.344 427.328C183.183 421.45 171.153 400.842 163.602 385.615C151.667 360.663 146.239 330.634 146.701 303.102Z" fill="white"/>
<path d="M258.929 348.98C262.732 352.784 261.218 362.376 261.223 367.464C261.223 367.963 261.223 368.462 261.224 368.975C261.188 392.509 255.16 413.699 244.106 434.386C243.862 434.848 243.617 435.31 243.365 435.786C235.589 450.37 225.83 463.986 213.755 475.325C213.289 475.092 212.824 474.859 212.344 474.619C204.114 449.703 213.158 421.402 224.312 399.062C233.371 381.233 244.352 362.932 258.929 348.98Z" fill="white"/>
<path d="M263.163 171.111C265.4 173.348 265.804 176.231 266.648 179.228C266.835 179.89 267.023 180.553 267.216 181.235C268.922 187.437 270.126 193.67 270.927 200.05C270.993 200.576 271.06 201.101 271.128 201.642C275.186 237.334 263.886 274.843 244.105 304.514C243.639 304.514 243.173 304.514 242.693 304.514C228.35 273.485 233.238 239.853 244.644 208.647C256.145 178.129 256.145 178.129 263.163 171.111Z" fill="white"/>
<path d="M209.52 236.754C226.333 258.047 228.892 292.334 226.212 318.206C224.116 335.994 220.601 355.784 211.638 371.568C208.721 368.907 206.846 366.234 205.021 362.745C204.614 361.969 204.614 361.969 204.199 361.178C199.375 351.628 196.311 341.19 194.698 330.63C194.569 329.825 194.439 329.019 194.306 328.19C190.701 298.057 197.302 265.248 208.815 237.46C209.047 237.227 209.28 236.994 209.52 236.754Z" fill="white"/>
<path d="M489.031 763.305C489.264 763.305 489.497 763.305 489.737 763.305C488.993 783.928 476.35 799.989 461.944 813.579C452.963 821.766 441.016 830.801 428.395 830.596C426.917 830.359 426.917 830.359 424.8 828.947C423.517 825.099 423.79 822.147 425.462 818.492C431.799 806.807 444.054 799.192 454.809 792.005C474.801 780.385 474.801 780.385 489.031 763.305Z" fill="white"/>
<path d="M526.439 763.305C527.172 764.404 527.904 765.504 528.617 766.616C534.238 774.774 543.282 780.148 551.408 785.538C553.268 786.779 555.126 788.022 556.983 789.266C557.436 789.57 557.89 789.873 558.357 790.186C561.543 792.327 564.691 794.516 567.816 796.746C568.211 797.028 568.606 797.31 569.013 797.6C588.572 811.653 588.572 811.653 591.376 820.477C591.768 823.126 591.998 825.623 591.376 828.241C589.507 830.148 588.015 830.677 585.376 830.712C571.936 830.258 559.701 818.53 550.438 809.89C549.863 809.362 549.289 808.834 548.698 808.291C537.776 797.869 527.491 783.045 526.277 767.587C526.265 766.158 526.339 764.73 526.439 763.305Z" fill="white"/>
</g>
</g>
<defs>
<clipPath id="clip0_307_553">
<rect width="307.849" height="218.822" fill="white" transform="translate(355.64 177.003)"/>
</clipPath>
<clipPath id="clip1_307_553">
<rect width="847" height="847" fill="white" transform="translate(74 73)"/>
</clipPath>
<clipPath id="clip2_307_553">
<rect width="847" height="847" fill="white" transform="translate(74 73)"/>
</clipPath>
</defs>
</svg>
